<?xml version="1.0" standalone="no"?>
<!DOCTYPE svg PUBLIC "-//W3C//DTD SVG 20010904//EN"
 "http://www.w3.org/TR/2001/REC-SVG-20010904/DTD/svg10.dtd">
<svg version="1.0" xmlns="http://www.w3.org/2000/svg"
 width="500.000000pt" height="500.000000pt" viewBox="0 0 500.000000 500.000000"
 preserveAspectRatio="xMidYMid meet">

<g transform="translate(0.000000,500.000000) scale(0.100000,-0.100000)"
fill="#000000" stroke="none">
<path d="M544 4421 c-56 -34 -67 -118 -22 -168 23 -25 73 -37 218 -53 58 -6
137 -15 175 -20 39 -5 98 -12 132 -15 46 -5 64 -11 67 -23 3 -10 59 -208 125
-442 67 -234 125 -438 130 -455 20 -60 241 -846 241 -855 0 -5 -22 -44 -48
-87 -94 -153 -180 -309 -192 -345 -9 -31 -9 -48 4 -92 19 -65 54 -109 110
-139 l41 -22 1140 -3 c810 -2 1151 0 1178 8 95 28 102 168 12 206 -29 12 -207
14 -1140 14 -877 0 -1105 3 -1105 13 0 6 33 64 73 127 l73 115 1080 5 1079 5
40 21 c71 38 115 97 136 179 4 16 26 93 49 170 23 77 49 169 59 205 10 36 37
128 60 205 24 77 62 208 86 290 24 83 59 205 79 272 41 137 42 152 21 193 -31
61 -26 60 -569 60 l-495 0 14 -47 c7 -27 17 -78 20 -115 l7 -68 388 -2 387 -3
-27 -95 c-15 -52 -76 -259 -135 -460 -59 -201 -111 -378 -115 -395 -32 -116
-52 -172 -67 -182 -13 -10 -129 -13 -499 -13 l-482 0 -45 -72 c-55 -89 -80
-113 -133 -128 -36 -11 -47 -10 -87 8 -39 17 -55 34 -101 106 l-55 86 -307 2
-307 3 -89 310 c-48 171 -98 344 -109 385 -11 41 -25 91 -30 110 -6 19 -14 49
-19 65 -5 17 -14 47 -19 68 -6 20 -15 52 -20 70 -6 17 -14 48 -19 67 -5 19
-13 43 -17 53 -7 16 6 17 186 17 l194 0 17 98 c9 53 19 105 23 115 7 16 -9 17
-238 17 -139 0 -248 4 -252 9 -3 5 -28 90 -56 188 -86 306 -87 309 -120 341
-35 35 -76 46 -214 62 -184 20 -279 31 -347 41 -97 13 -129 11 -164 -10z"/>
<path d="M2580 4178 c-226 -23 -409 -155 -505 -363 -46 -99 -60 -165 -59 -280
1 -185 49 -293 329 -730 121 -189 262 -418 279 -452 12 -25 30 -35 49 -27 6 2
43 57 82 122 76 128 103 172 252 402 132 206 155 245 212 364 80 165 107 317
80 448 -68 338 -365 551 -719 516z m161 -309 c101 -33 174 -91 217 -174 23
-44 26 -62 27 -146 0 -82 -3 -102 -25 -145 -66 -130 -218 -210 -349 -183 -85
17 -136 46 -190 105 -128 139 -120 343 18 467 82 74 209 106 302 76z"/>
<path d="M1580 1593 c-125 -21 -224 -171 -191 -285 7 -24 21 -58 32 -75 17
-31 17 -33 1 -33 -27 0 -526 -504 -530 -536 -8 -58 -130 -54 1723 -54 1668 0
1702 0 1719 19 10 11 15 27 12 38 -3 10 -124 136 -268 280 l-263 262 22 43
c57 110 3 263 -112 317 -59 28 -161 29 -213 2 -38 -20 -87 -68 -110 -109 -35
-63 -29 -174 12 -238 l16 -24 -810 0 -811 0 20 29 c74 103 31 272 -85 336 -41
23 -119 36 -164 28z m228 -477 c1 -2 -12 -29 -30 -60 l-32 -56 -208 0 c-114 0
-208 3 -208 6 0 3 24 31 54 62 l54 57 184 -3 c100 -2 184 -5 186 -6z m2040
-49 c28 -28 52 -55 52 -59 0 -4 -80 -8 -179 -8 l-178 0 -37 55 c-20 30 -36 58
-36 61 0 4 37 4 83 1 45 -3 100 -3 121 1 82 15 117 4 174 -51z m-1538 50 c0
-1 -9 -27 -19 -57 l-19 -55 -206 -3 c-113 -1 -206 1 -206 5 0 4 14 31 32 60
l32 53 193 0 c106 0 193 -1 193 -3z m600 -57 l17 -55 -275 -3 c-151 -1 -277 0
-280 3 -3 2 3 29 13 60 l17 55 245 -2 246 -3 17 -55z m484 5 c20 -30 36 -57
36 -60 0 -3 -90 -5 -201 -5 l-200 0 -13 33 c-7 17 -16 44 -20 60 l-6 27 183 0
184 0 37 -55z m-1714 -161 c0 -4 -23 -46 -51 -95 -39 -68 -57 -89 -73 -89 -11
0 -130 -1 -264 -3 -133 -1 -241 1 -240 5 2 4 41 48 88 97 l85 90 228 1 c125 0
227 -3 227 -6z m560 -11 c0 -10 -9 -49 -21 -88 -12 -38 -23 -76 -25 -83 -3 -9
-57 -12 -243 -11 -131 1 -244 5 -250 9 -12 7 10 51 74 148 l28 42 218 0 c201
0 219 -1 219 -17z m744 -76 c14 -51 26 -96 26 -100 0 -7 -707 -3 -715 4 -4 5
39 162 50 179 4 6 119 10 309 10 l303 0 27 -93z m565 1 c33 -51 58 -95 55 -99
-6 -10 -483 -4 -493 7 -7 8 -26 73 -48 162 l-5 22 216 0 216 0 59 -92z m537 0
l89 -93 -225 -3 -225 -3 -20 26 c-25 30 -81 123 -91 148 -6 16 7 17 188 17
l194 0 90 -92z"/>
</g>
</svg>
