<?xml version="1.0" standalone="no"?>
<!DOCTYPE svg PUBLIC "-//W3C//DTD SVG 20010904//EN"
 "http://www.w3.org/TR/2001/REC-SVG-20010904/DTD/svg10.dtd">
<svg version="1.0" xmlns="http://www.w3.org/2000/svg"
 width="350.000000pt" height="342.000000pt" viewBox="0 0 350.000000 342.000000"
 preserveAspectRatio="xMidYMid meet">

<g transform="translate(0.000000,342.000000) scale(0.100000,-0.100000)"
fill="#000000" stroke="none">
<path d="M774 3091 c-47 -20 -54 -46 -54 -193 0 -134 -1 -138 -21 -138 -12 0
-36 -15 -55 -34 -41 -41 -45 -91 -11 -150 43 -76 53 -79 366 -83 152 -2 281
-4 287 -3 5 0 18 -6 28 -13 16 -12 14 -20 -38 -117 -61 -116 -103 -247 -112
-351 -6 -60 -5 -69 11 -75 33 -13 49 10 62 85 18 110 40 177 89 278 57 116 62
120 112 94 22 -11 59 -25 83 -31 l45 -11 -4 -67 c-5 -90 31 -162 102 -207 110
-67 256 -36 321 70 27 43 30 57 30 126 l0 77 55 17 c30 10 68 24 84 32 28 15
31 14 49 -8 55 -69 117 -230 140 -368 13 -76 29 -100 61 -88 48 19 -22 302
-113 453 -37 64 -39 69 -24 86 14 16 37 18 202 19 265 0 385 11 418 35 43 32
65 69 70 115 6 51 -20 93 -70 114 l-29 12 1 111 c1 61 -3 128 -8 149 -20 72
-111 97 -170 47 l-31 -26 0 -144 0 -144 -202 0 -202 0 -97 40 c-143 58 -213
72 -364 73 -148 0 -236 -18 -374 -78 l-83 -35 -199 0 -199 0 0 139 c0 131 -1
142 -23 166 -25 30 -94 43 -133 26z m84 -198 l3 -133 -36 0 -35 0 0 123 c0
130 6 150 45 145 19 -3 20 -11 23 -135z m1920 0 l3 -133 -31 0 -30 0 0 128 c0
71 3 132 7 136 4 4 16 6 28 4 19 -3 20 -11 23 -135z m-792 -114 c39 -9 102
-32 140 -51 l69 -33 340 -5 340 -5 3 -31 c2 -19 -4 -40 -16 -54 -18 -22 -29
-25 -143 -31 -68 -4 -201 -8 -294 -8 l-170 -1 -50 -41 c-57 -48 -127 -82 -203
-98 -68 -14 -355 -14 -424 0 -73 15 -154 55 -203 99 l-40 37 -299 6 -300 6
-24 25 c-27 26 -33 73 -11 87 8 5 157 9 332 9 l319 0 78 35 c193 84 369 101
556 54z m-40 -474 c10 -58 -4 -105 -45 -146 -112 -113 -296 -12 -267 146 l7
35 149 0 149 0 7 -35z"/>
<path d="M1755 2270 c-37 -41 24 -97 63 -58 18 18 14 56 -7 68 -27 14 -35 13
-56 -10z"/>
<path d="M252 3008 c-18 -18 -14 -46 7 -58 11 -6 92 -10 190 -10 141 0 172 3
185 16 20 19 20 29 0 48 -13 13 -45 16 -193 16 -124 0 -181 -4 -189 -12z"/>
<path d="M1012 3008 c-18 -18 -14 -46 7 -58 11 -6 92 -10 190 -10 141 0 172 3
185 16 19 18 19 20 6 45 -10 18 -23 19 -193 19 -129 0 -187 -4 -195 -12z"/>
<path d="M2160 3001 c-13 -25 -13 -27 6 -45 13 -13 45 -16 195 -16 184 0 219
6 219 38 0 39 -18 42 -217 42 -180 0 -193 -1 -203 -19z"/>
<path d="M2942 3008 c-7 -7 -12 -19 -12 -28 0 -36 20 -40 188 -40 93 0 172 4
183 10 21 12 25 40 7 58 -17 17 -349 17 -366 0z"/>
<path d="M1409 1803 l-84 -128 -130 -1 c-121 0 -136 -2 -213 -31 -283 -108
-465 -364 -466 -658 0 -190 64 -344 200 -483 l82 -83 -34 -102 c-37 -109 -37
-141 -2 -151 13 -3 453 -6 979 -6 763 0 959 3 973 13 11 8 44 106 97 291 101
356 209 716 261 879 32 98 40 132 31 145 -9 16 -68 17 -733 20 l-723 2 -35 31
c-29 25 -159 96 -204 111 -6 2 24 56 67 120 80 122 89 151 44 156 -23 3 -35
-10 -110 -125z m-127 -199 c5 -5 -68 -206 -85 -231 -5 -8 -29 -13 -57 -13 -58
0 -78 -20 -111 -111 -24 -65 -39 -82 -66 -77 -15 3 -19 17 -25 85 -9 106 -40
174 -86 188 -18 5 -32 12 -32 17 0 31 192 125 290 141 39 7 166 8 172 1z m153
-43 c36 -17 79 -40 95 -51 l30 -22 -44 -50 c-50 -55 -64 -100 -47 -149 6 -18
11 -49 11 -70 0 -48 19 -68 98 -108 88 -45 112 -78 112 -156 0 -83 12 -112 62
-157 l42 -37 -34 -66 c-63 -125 -192 -239 -330 -293 -325 -126 -699 51 -810
383 -16 50 -42 195 -34 195 1 0 19 -8 40 -17 22 -9 91 -29 154 -43 l115 -27 6
-54 c7 -64 16 -84 58 -123 l31 -29 -7 -88 c-5 -72 -3 -93 10 -113 35 -53 137
-55 184 -4 12 13 33 62 48 110 23 77 31 92 69 123 57 47 71 82 71 183 0 78 -2
85 -26 106 -24 21 -40 24 -152 28 -121 5 -127 6 -161 34 -40 33 -44 44 -17 44
19 0 71 52 71 71 0 6 10 33 21 60 20 46 24 49 58 49 36 0 75 20 98 50 10 13
27 54 94 228 5 12 11 22 14 22 3 0 35 -13 70 -29z m230 -163 c114 -134 171
-307 157 -484 l-4 -62 -29 17 c-27 15 -29 20 -29 83 0 37 -5 79 -11 95 -15 42
-66 90 -135 129 -61 34 -62 34 -66 87 -3 28 -9 60 -13 69 -5 12 6 30 37 62 23
25 46 46 50 46 3 0 23 -19 43 -42z m415 35 c0 -5 -24 -80 -53 -168 l-53 -160
-47 -3 c-44 -3 -47 -2 -47 22 0 59 -73 214 -132 281 l-30 35 181 0 c100 0 181
-3 181 -7z m537 -5 c-2 -7 -26 -84 -53 -170 l-48 -158 -234 0 c-206 0 -233 2
-228 15 3 9 27 82 52 163 26 81 49 150 51 155 2 4 108 7 235 7 180 0 229 -3
225 -12z m403 -10 c-5 -13 -30 -89 -55 -170 l-46 -148 -165 0 c-91 0 -163 3
-161 8 3 4 26 77 52 162 26 85 49 158 52 163 2 4 78 7 168 7 l165 0 -10 -22z
m-2201 -38 c25 0 48 -62 55 -151 10 -111 30 -153 98 -208 66 -54 77 -57 222
-60 50 -1 94 -5 99 -8 6 -3 7 -34 4 -71 -6 -63 -9 -68 -61 -122 -49 -49 -58
-64 -79 -140 -26 -89 -47 -113 -88 -103 -18 5 -20 13 -17 104 l3 98 -42 43
c-27 28 -43 53 -43 68 0 42 -19 96 -40 115 -10 9 -50 24 -87 31 -37 8 -101 24
-140 36 -66 19 -73 23 -73 47 0 14 -4 32 -9 39 -23 36 28 172 100 269 39 52
39 53 59 33 11 -11 29 -20 39 -20z m1117 -377 c-3 -10 -15 -45 -26 -78 -17
-53 -19 -55 -15 -20 3 22 5 57 5 78 0 31 3 37 21 37 15 0 19 -5 15 -17z m554
15 c0 -2 -24 -79 -53 -173 l-53 -170 -237 -3 c-130 -1 -237 1 -237 5 0 5 25
83 56 175 l56 168 234 0 c129 0 234 -1 234 -2z m356 -173 l-50 -175 -169 0
c-131 0 -168 3 -164 13 2 6 26 82 52 167 26 85 49 158 52 163 2 4 78 7 167 7
l163 0 -51 -175z m-1097 -425 l-54 -180 -437 0 c-274 0 -438 4 -438 10 0 19
42 120 49 120 5 0 33 -11 62 -24 247 -109 552 -55 751 132 37 35 77 80 89 99
12 19 24 32 27 29 2 -3 -19 -87 -49 -186z m611 178 c0 -2 -24 -82 -54 -178
l-53 -175 -242 -3 c-228 -2 -242 -1 -237 15 3 10 26 86 51 168 25 83 47 156
50 163 3 9 62 12 245 12 132 0 240 -1 240 -2z m366 -178 l-51 -180 -172 0
c-104 0 -173 4 -173 10 0 11 100 331 107 343 2 4 80 7 172 7 l167 0 -50 -180z"/>
<path d="M2021 1916 c-15 -18 -13 -24 91 -178 43 -65 83 -118 89 -118 19 0 49
20 49 33 0 7 -39 71 -88 142 -88 132 -114 154 -141 121z"/>
<path d="M1766 1827 c-24 -18 -19 -185 6 -200 12 -8 21 -7 32 2 12 10 16 33
16 102 0 76 -3 90 -19 98 -13 7 -23 7 -35 -2z"/>
</g>
</svg>
