<?xml version="1.0" standalone="no"?>
<!DOCTYPE svg PUBLIC "-//W3C//DTD SVG 20010904//EN"
 "http://www.w3.org/TR/2001/REC-SVG-20010904/DTD/svg10.dtd">
<svg version="1.0" xmlns="http://www.w3.org/2000/svg"
 width="232.000000pt" height="383.000000pt" viewBox="0 0 232.000000 383.000000"
 preserveAspectRatio="xMidYMid meet">

<g transform="translate(0.000000,383.000000) scale(0.100000,-0.100000)"
fill="#000000" stroke="none">
<path d="M719 3595 c-34 -18 -40 -35 -94 -250 -24 -99 -49 -181 -56 -184 -6
-2 -25 -15 -41 -30 l-29 -26 1 -650 0 -650 25 -22 c24 -21 36 -23 136 -23
l109 0 0 -49 c0 -27 3 -56 6 -65 5 -12 -1 -16 -24 -16 -17 0 -35 -6 -39 -14
-4 -8 -6 -65 -3 -128 l6 -113 -49 -105 c-161 -342 -308 -652 -400 -843 -125
-259 -125 -258 -21 -270 95 -11 167 -1 192 26 11 12 95 161 187 332 92 171
213 394 269 497 55 104 104 188 109 188 4 0 7 -24 7 -52 0 -29 7 -192 15 -363
29 -620 25 -576 51 -602 19 -19 34 -23 84 -23 51 0 65 4 85 25 15 14 25 36 25
52 0 15 5 102 10 193 5 91 14 269 19 395 14 293 21 389 31 378 4 -4 114 -208
245 -453 298 -558 301 -564 320 -580 19 -16 137 -25 200 -16 34 6 49 13 56 29
12 26 16 14 -211 492 -84 176 -191 403 -238 505 l-85 185 2 118 c3 130 -3 147
-50 147 -29 0 -29 0 -29 65 l0 65 120 0 c115 0 122 1 145 25 19 18 25 35 25
68 l0 44 42 6 c32 4 51 15 75 41 31 34 33 40 33 111 0 114 -47 185 -124 185
l-26 0 0 423 c0 459 0 460 -56 487 -31 14 -34 22 -78 190 -57 211 -62 225 -94
250 -24 19 -42 20 -441 20 -340 -1 -421 -3 -442 -15z m893 -240 c26 -93 48
-176 48 -182 0 -10 -26 -13 -98 -13 l-99 0 -6 115 c-4 65 -12 123 -19 135 -22
36 -70 42 -305 38 l-223 -3 -27 -27 c-26 -26 -28 -34 -33 -140 l-5 -113 -92
-3 c-51 -1 -93 0 -93 3 0 6 59 242 81 328 l10 37 407 -2 407 -3 47 -170z
m-234 -87 l3 -98 -228 0 -228 0 3 87 c2 49 5 94 7 101 4 10 53 12 222 10 l218
-3 3 -97z m-558 -618 l0 -440 -59 0 c-38 0 -65 -5 -74 -14 -10 -11 -16 -58
-21 -182 -3 -92 -8 -169 -9 -170 -1 -1 -20 -4 -42 -6 l-40 -3 -3 614 c-1 445
1 618 9 627 8 10 41 14 125 14 l114 0 0 -440z m610 100 l0 -340 -270 0 -270 0
0 340 0 340 270 0 270 0 0 -340z m316 328 c13 -21 17 -1203 4 -1227 -8 -16
-20 -21 -49 -21 l-38 0 -6 122 c-4 66 -7 147 -7 179 0 70 -11 79 -94 79 l-56
0 0 440 0 440 119 0 c84 0 122 -4 127 -12z m-316 -813 l0 -65 -270 0 -270 0 0
65 0 65 270 0 270 0 0 -65z m463 -127 c34 -40 17 -158 -23 -158 -5 0 -15 -3
-24 -6 -14 -5 -16 7 -16 96 0 100 0 101 23 95 12 -4 30 -16 40 -27z m-319 -30
c3 -13 6 -78 6 -145 l0 -123 -420 -2 -420 -3 0 80 c0 44 3 110 7 148 l6 67
407 0 408 0 6 -22z m-106 -410 l-3 -63 -307 -3 -308 -2 0 65 0 65 310 0 311 0
-3 -62z m70 -200 l3 -58 -381 0 -380 0 0 53 c0 30 3 57 7 60 4 4 173 6 377 5
l371 -3 3 -57z m-540 -136 c-2 -4 -72 -134 -157 -290 l-153 -282 -80 0 c-77 0
-79 1 -72 22 7 22 243 523 257 546 9 13 211 18 205 4z m252 -31 c0 -50 -19
-404 -26 -476 l-5 -60 -60 3 c-47 3 -59 7 -60 20 0 10 -6 134 -13 277 -8 143
-12 264 -9 268 3 5 43 7 89 6 l84 -3 0 -35z m290 22 c12 -20 260 -555 260
-560 0 -2 -37 -3 -82 -1 l-83 3 -93 175 c-51 96 -119 222 -150 280 -31 58 -58
108 -60 113 -2 4 42 7 97 7 85 0 102 -3 111 -17z m-930 -708 c-23 -42 -77
-142 -120 -223 -108 -202 -99 -192 -170 -192 -33 0 -60 3 -60 6 0 7 134 293
191 407 l39 77 81 0 80 0 -41 -75z m607 -2 c-4 -43 -9 -143 -12 -223 -8 -188
-8 -190 -45 -190 -19 0 -30 6 -34 18 -2 9 -7 103 -11 207 -3 105 -8 207 -11
228 l-6 37 62 0 63 0 -6 -77z m736 -165 l116 -243 -62 -3 c-51 -3 -64 0 -75
15 -15 20 -252 461 -252 469 0 2 35 4 78 4 l79 0 116 -242z"/>
<path d="M1070 2933 c-180 -92 -151 -350 44 -394 96 -21 183 21 229 111 24 46
28 63 23 108 -10 107 -87 186 -192 198 -41 5 -58 1 -104 -23z m161 -76 c43
-29 59 -60 59 -118 0 -111 -132 -171 -214 -98 -67 58 -67 149 -1 208 45 39
105 42 156 8z"/>
</g>
</svg>
