<?xml version="1.0" standalone="no"?>
<!DOCTYPE svg PUBLIC "-//W3C//DTD SVG 20010904//EN"
 "http://www.w3.org/TR/2001/REC-SVG-20010904/DTD/svg10.dtd">
<svg version="1.0" xmlns="http://www.w3.org/2000/svg"
 width="320.000000pt" height="317.000000pt" viewBox="0 0 320.000000 317.000000"
 preserveAspectRatio="xMidYMid meet">

<g transform="translate(0.000000,317.000000) scale(0.100000,-0.100000)"
fill="#000000" stroke="none">
<path d="M896 2835 c-50 -17 -92 -58 -122 -118 -27 -51 -73 -87 -115 -87 -37
0 -124 -47 -155 -83 -14 -17 -38 -55 -52 -83 -24 -49 -27 -52 -56 -47 -19 3
-39 -1 -51 -10 -20 -15 -20 -29 -23 -1060 -2 -943 -1 -1047 14 -1061 14 -14
138 -16 1272 -16 691 0 1263 4 1270 8 10 7 12 221 12 1066 0 582 -2 1062 -5
1066 -11 17 -87 20 -270 11 -233 -12 -313 -31 -489 -114 -150 -70 -194 -78
-319 -54 -45 9 -98 19 -118 22 -30 4 -38 10 -42 33 -9 45 -90 128 -145 148
-146 53 -175 77 -192 159 -6 30 -24 71 -40 93 -78 108 -257 169 -374 127z
m168 -69 c91 -27 176 -108 176 -165 0 -41 41 -111 82 -141 22 -16 69 -39 106
-51 48 -16 79 -34 110 -64 58 -59 56 -75 -10 -75 -29 0 -105 -9 -168 -20 -127
-22 -280 -27 -354 -10 -27 6 -124 35 -216 65 -92 30 -196 58 -231 62 -73 10
-76 16 -33 90 33 57 80 91 145 103 74 14 122 49 162 117 57 99 119 122 231 89z
m1761 -712 l0 -296 -35 6 c-93 17 -258 18 -363 2 -155 -23 -269 -21 -422 10
-171 34 -310 30 -495 -16 -153 -37 -263 -47 -356 -31 -38 7 -148 39 -244 71
-195 66 -312 90 -437 90 l-84 0 1 210 c1 115 5 211 8 213 4 2 52 -2 108 -9 67
-9 162 -33 286 -73 270 -87 332 -93 583 -49 146 26 318 28 423 4 136 -30 207
-18 361 59 161 80 272 103 506 104 l160 1 0 -296z m-2120 -263 c44 -11 143
-43 220 -70 238 -83 364 -90 595 -31 182 46 314 51 479 16 147 -31 283 -34
429 -10 95 16 292 15 365 -2 l27 -6 -2 -252 -3 -251 -50 -27 c-83 -45 -197
-72 -305 -71 -83 0 -111 5 -225 42 -288 92 -425 94 -706 12 -153 -44 -280 -64
-367 -57 -40 3 -142 24 -227 46 -171 44 -344 70 -465 70 l-79 0 -1 311 0 312
117 -5 c72 -4 149 -14 198 -27z m-79 -672 c63 -6 183 -30 284 -55 271 -70 367
-68 645 10 270 77 375 76 632 -4 180 -57 245 -66 354 -52 74 10 179 41 262 77
16 7 17 -15 17 -374 l0 -381 -1215 0 -1215 0 0 199 0 199 31 6 c26 5 30 10 27
33 -2 22 -9 29 -30 31 l-28 3 0 160 0 159 63 0 c35 0 113 -5 173 -11z"/>
<path d="M594 1506 c-15 -12 -17 -19 -8 -32 25 -42 124 -37 124 6 0 36 -78 53
-116 26z"/>
<path d="M2434 1506 c-15 -12 -17 -18 -8 -33 13 -22 79 -30 100 -12 45 37 -43
81 -92 45z"/>
<path d="M1349 1444 c-22 -27 1 -49 51 -49 29 0 46 5 53 17 17 25 -9 48 -53
48 -22 0 -43 -7 -51 -16z"/>
<path d="M2025 1426 c-25 -18 -13 -43 27 -54 43 -11 66 -5 74 21 13 40 -59 64
-101 33z"/>
<path d="M991 1366 c-24 -28 -9 -51 34 -54 51 -4 85 18 69 45 -15 24 -86 30
-103 9z"/>
<path d="M1715 836 c-71 -13 -85 -21 -85 -47 0 -28 21 -33 97 -19 65 11 93 23
93 41 0 10 -29 39 -38 38 -4 -1 -34 -7 -67 -13z"/>
<path d="M1955 823 c-9 -8 -14 -20 -13 -27 6 -18 150 -86 178 -83 19 1 25 8
25 27 0 26 -39 51 -132 84 -38 13 -44 13 -58 -1z"/>
<path d="M636 805 c-26 -26 -4 -51 66 -74 69 -23 94 -26 103 -11 14 23 -8 50
-58 68 -88 33 -94 34 -111 17z"/>
<path d="M1467 742 c-15 -11 -53 -28 -83 -38 -31 -10 -60 -26 -65 -36 -13 -23
16 -51 45 -42 126 39 189 80 170 111 -15 25 -34 26 -67 5z"/>
<path d="M2663 723 c-31 -17 -43 -31 -43 -48 0 -35 27 -38 84 -8 40 22 51 33
51 53 0 34 -37 36 -92 3z"/>
<path d="M961 686 c-33 -40 17 -67 129 -69 75 -2 75 -2 78 25 4 30 -1 32 -93
42 -27 4 -62 9 -76 12 -16 4 -30 0 -38 -10z"/>
<path d="M2287 686 c-16 -41 23 -62 133 -72 54 -5 68 -4 80 11 22 27 0 49 -56
56 -27 3 -72 9 -100 14 -42 6 -52 4 -57 -9z"/>
</g>
</svg>
