<?xml version="1.0" standalone="no"?>
<!DOCTYPE svg PUBLIC "-//W3C//DTD SVG 20010904//EN"
 "http://www.w3.org/TR/2001/REC-SVG-20010904/DTD/svg10.dtd">
<svg version="1.0" xmlns="http://www.w3.org/2000/svg"
 width="345.000000pt" height="723.000000pt" viewBox="0 0 345.000000 723.000000"
 preserveAspectRatio="xMidYMid meet">

<g transform="translate(0.000000,723.000000) scale(0.100000,-0.100000)"
fill="#000000" stroke="none">
<path d="M1245 6914 c-11 -3 -47 -10 -80 -16 -155 -29 -302 -136 -407 -298
-37 -55 -61 -81 -95 -100 -66 -36 -83 -74 -83 -182 0 -48 5 -99 11 -115 15
-40 57 -81 95 -93 67 -22 214 -213 269 -350 47 -116 70 -154 121 -198 76 -68
129 -82 308 -82 198 0 202 -3 208 -121 4 -98 14 -109 100 -109 l58 0 0 -585 0
-585 -37 0 c-21 0 -43 -4 -49 -8 -16 -11 -34 -48 -34 -71 0 -19 -6 -21 -58
-21 -75 0 -92 -16 -92 -87 0 -66 18 -83 92 -83 l55 0 6 -47 c6 -55 25 -73 79
-73 l38 0 0 -228 c0 -133 -4 -232 -10 -238 -5 -5 -11 -59 -12 -119 l-3 -110
-107 -3 -107 -3 -3 323 -3 323 -31 50 c-38 62 -99 110 -166 130 -78 23 -840
22 -918 -1 -71 -21 -160 -109 -179 -176 -9 -31 -13 -138 -14 -344 l-2 -299
-43 -6 c-24 -3 -48 -12 -53 -20 -11 -18 -11 -410 0 -428 5 -8 29 -17 53 -20
l43 -6 6 -110 c4 -78 13 -129 29 -175 23 -64 23 -73 25 -485 2 -410 2 -421 24
-466 26 -55 80 -109 141 -141 45 -23 46 -23 430 -23 384 0 385 0 433 24 58 28
109 80 140 141 21 44 22 55 27 475 5 422 6 431 29 485 17 42 24 83 29 170 l7
115 105 0 105 0 9 -55 c5 -30 12 -567 15 -1193 5 -996 8 -1139 21 -1147 23
-15 353 -13 368 2 9 9 12 276 12 1140 l0 1128 143 0 c113 0 147 3 165 16 l22
15 0 388 c0 377 -1 388 -20 406 -18 16 -40 19 -163 20 l-142 2 -3 222 -2 221
43 0 c73 0 77 10 77 197 0 183 -4 193 -78 193 l-42 0 0 585 0 585 58 0 c78 0
92 15 92 99 0 65 18 114 45 125 9 3 86 6 171 6 142 0 159 2 218 26 92 37 139
81 182 172 20 42 54 114 76 159 60 127 183 273 229 273 26 0 80 49 95 87 8 19
14 67 14 115 -1 114 -21 158 -88 189 -34 16 -55 33 -68 58 -62 117 -194 241
-317 299 -126 59 -171 62 -917 61 -371 -1 -684 -3 -695 -5z m1457 -95 c29 -5
71 -18 93 -27 55 -22 164 -94 196 -129 38 -41 99 -123 99 -134 0 -5 -450 -9
-1140 -9 -627 0 -1140 2 -1140 5 0 3 17 29 39 58 84 115 217 208 331 233 73
16 1443 19 1522 3z m518 -409 c17 -17 20 -33 20 -104 0 -76 -2 -86 -22 -100
-20 -14 -157 -16 -1265 -16 -1443 0 -1283 -15 -1283 120 0 135 -161 120 1285
120 1232 0 1245 0 1265 -20z m-156 -309 c3 -5 -4 -17 -15 -27 -56 -51 -140
-191 -189 -319 -44 -114 -102 -164 -214 -184 -39 -7 -288 -11 -706 -11 -546 0
-655 2 -704 15 -95 25 -151 85 -200 212 -29 77 -101 192 -166 266 -22 25 -40
48 -40 51 0 10 2228 7 2234 -3z m-834 -640 c-5 -11 -10 -45 -10 -75 l0 -56
-269 0 -269 0 -4 58 c-3 31 -9 65 -13 75 -7 16 11 17 284 17 285 0 291 0 281
-19z m-162 -799 l2 -583 -117 3 -118 3 -3 583 -2 583 117 -3 118 -3 3 -583z
m112 -782 l0 -110 -230 0 -230 0 0 110 0 110 230 0 230 0 0 -110z m-861 -160
c49 -25 88 -70 101 -120 7 -27 10 -243 7 -657 l-3 -618 -27 -80 -27 -80 0
-382 c0 -234 -4 -401 -11 -432 -13 -63 -70 -125 -129 -141 -27 -7 -161 -10
-399 -8 l-359 3 -43 30 c-86 61 -83 43 -89 535 l-6 435 -24 55 -25 55 -3 628
c-2 403 1 641 7 665 12 43 62 99 106 118 23 10 127 13 458 14 405 0 430 -1
466 -20z m749 -252 l-3 -223 -70 2 c-38 1 -91 2 -117 2 l-48 1 0 213 c0 118 3
217 7 220 3 4 57 7 120 7 l113 0 -2 -222z m330 -500 c1 -104 -1 -188 -5 -188
-5 0 -28 35 -52 78 -137 243 -153 263 -190 243 -10 -6 -48 -61 -82 -122 -35
-61 -72 -125 -83 -142 -10 -18 -42 -73 -72 -124 -55 -93 -68 -148 -40 -159 8
-3 129 -6 268 -7 l253 -2 0 -25 0 -25 -292 -3 -293 -2 0 335 0 335 293 -2 292
-3 3 -187z m-126 -158 c50 -85 92 -161 95 -167 4 -10 -39 -13 -196 -13 -111 0
-201 3 -201 7 0 20 192 334 202 331 6 -2 51 -73 100 -158z m-2082 -55 c0 -97
-4 -155 -10 -155 -6 0 -10 58 -10 155 0 97 4 155 10 155 6 0 10 -58 10 -155z
m1540 5 l0 -150 -110 0 -110 0 0 150 0 150 110 0 110 0 0 -150z m338 -1457
l-3 -1098 -115 0 -115 0 -3 1098 -2 1097 120 0 120 0 -2 -1097z"/>
<path d="M1564 5985 c-25 -25 -26 -28 -22 -150 3 -121 4 -125 31 -152 l27 -28
340 -3 c291 -2 344 -1 370 13 49 25 60 60 60 185 0 104 -1 112 -25 135 l-24
25 -366 0 -366 0 -25 -25z m714 -152 l-3 -88 -319 -3 c-249 -2 -321 1 -328 10
-4 7 -8 48 -8 91 l0 77 330 0 331 0 -3 -87z"/>
<path d="M1914 5835 c-8 -30 10 -55 40 -55 34 0 48 15 44 46 -3 26 -7 29 -40
32 -33 3 -38 0 -44 -23z"/>
<path d="M387 3612 c-15 -17 -17 -78 -17 -670 l0 -651 22 -15 c20 -14 80 -16
463 -16 383 0 443 2 463 16 l22 15 0 650 c0 636 0 649 -20 669 -19 19 -33 20
-468 20 -422 0 -450 -1 -465 -18z m323 -69 c0 -5 -66 -129 -75 -141 -1 -1 -18
5 -38 13 -20 8 -61 15 -92 15 l-55 0 0 60 0 60 130 0 c72 0 130 -3 130 -7z
m280 2 c0 -2 -25 -45 -55 -95 -30 -50 -55 -93 -55 -95 0 -4 -47 -75 -55 -83
-4 -5 -125 86 -125 94 0 2 20 45 45 94 l45 90 100 0 c55 0 100 -2 100 -5z
m270 -10 c0 -12 -57 -115 -63 -115 -13 1 -149 48 -154 54 -4 4 1 22 12 41 l18
35 94 0 c76 0 93 -3 93 -15z m-178 -152 l77 -27 -17 -29 c-9 -16 -23 -32 -30
-34 -7 -3 -46 7 -88 22 -72 26 -74 28 -61 49 7 11 17 27 21 34 10 16 8 16 98
-15z m-519 -34 c25 -6 83 -40 142 -84 145 -107 262 -179 418 -257 136 -69 137
-69 137 -104 0 -19 -1 -34 -3 -34 -5 0 -166 69 -224 96 -96 45 -300 181 -361
241 -36 35 -105 65 -162 70 -60 6 -60 6 -60 38 0 17 3 35 7 38 10 10 59 8 106
-4z m695 -68 l3 -44 -33 7 c-46 9 -50 17 -26 54 29 46 52 39 56 -17z m-290
-18 c14 -3 37 -12 51 -19 14 -8 32 -14 39 -14 16 0 15 -5 -3 -38 -30 -56 -29
-55 -71 -34 -22 11 -53 31 -71 44 -31 23 -31 24 -15 51 10 16 23 25 30 22 8
-3 26 -8 40 -12z m-405 -70 c42 -21 167 -121 167 -133 0 -5 -14 -17 -30 -25
-36 -19 -70 -70 -70 -105 0 -14 11 -42 25 -62 32 -47 32 -64 -3 -82 -16 -8
-34 -22 -41 -30 -15 -18 -39 -20 -60 -7 -12 8 -8 14 16 35 40 34 47 70 22 122
-15 32 -17 47 -10 68 24 62 -27 136 -95 136 l-34 0 0 50 0 50 40 0 c23 0 55
-7 73 -17z m643 -19 l54 -15 0 -63 c0 -34 -3 -65 -6 -68 -7 -7 -164 74 -164
84 0 12 45 77 53 78 5 0 33 -7 63 -16z m-702 -140 c20 -8 21 -38 1 -54 -17
-14 -21 -70 -5 -70 15 0 41 -46 35 -62 -6 -15 -56 -48 -74 -48 -17 0 -15 227
2 233 18 8 23 8 41 1z m316 -29 c11 -13 10 -18 -2 -28 -50 -40 -61 -102 -28
-152 27 -41 25 -53 -18 -103 -36 -41 -38 -42 -69 -30 -39 15 -41 21 -8 38 13
7 32 29 41 48 13 29 14 42 5 72 -6 21 -18 43 -26 50 -26 22 -16 48 31 85 53
40 57 41 74 20z m103 -61 c3 -3 2 -16 -3 -28 -9 -25 4 -56 24 -56 7 0 25 9 39
20 25 20 28 20 59 4 18 -9 35 -18 37 -20 3 -3 -10 -20 -28 -38 l-33 -34 -32
19 c-18 11 -49 19 -75 19 -48 0 -70 18 -71 57 0 33 63 77 83 57z m286 -135
c48 -20 51 -24 51 -57 0 -34 -31 -82 -53 -82 -9 0 -127 80 -127 87 0 6 65 73
71 73 4 0 29 -10 58 -21z m-265 -54 c18 -13 16 -17 -34 -75 -28 -33 -54 -60
-57 -60 -13 0 -43 22 -43 33 0 15 93 117 106 117 5 0 17 -7 28 -15z m-152
-181 c164 -82 348 -201 348 -225 0 -5 -23 -9 -51 -9 -36 0 -59 6 -77 21 -15
11 -45 34 -66 50 -56 42 -283 151 -398 190 l-98 34 0 37 0 38 118 -42 c64 -22
165 -65 224 -94z m306 82 c34 -21 62 -42 62 -45 0 -8 -96 -101 -104 -101 -3 0
-30 16 -60 35 -30 19 -60 35 -66 35 -5 0 -10 3 -10 7 0 10 103 114 110 111 3
-2 34 -21 68 -42z m162 -181 c0 -86 -3 -115 -12 -115 -7 1 -40 25 -72 55 l-60
54 65 60 c35 33 67 60 72 61 4 0 7 -52 7 -115z m-700 47 c46 -16 85 -33 87
-38 1 -5 -8 -22 -21 -37 l-23 -29 -76 39 c-67 33 -77 41 -77 66 0 34 6 34 110
-1z m296 -138 c30 -19 54 -37 54 -39 0 -3 -58 -5 -130 -5 -97 0 -130 3 -130
13 0 6 16 33 35 60 l35 47 41 -20 c22 -12 65 -37 95 -56z m-313 -18 c30 -18
19 -26 -38 -26 l-55 0 0 41 0 41 38 -23 c20 -13 45 -28 55 -33z"/>
<path d="M467 2170 c-37 -30 -52 -80 -34 -122 23 -55 40 -63 135 -63 79 0 85
2 108 28 36 42 34 109 -5 148 -27 27 -35 29 -104 29 -59 0 -79 -4 -100 -20z
m161 -82 c4 -32 -19 -42 -83 -36 -45 4 -66 28 -45 53 10 12 27 15 69 13 53 -3
56 -5 59 -30z"/>
<path d="M749 2161 c-38 -39 -41 -106 -5 -147 21 -25 30 -28 92 -28 91 -1 116
7 137 43 21 37 22 75 0 111 -22 38 -52 50 -129 50 -59 0 -68 -3 -95 -29z m165
-64 c22 -36 -56 -63 -105 -37 -21 12 -26 46 -6 54 28 12 100 1 111 -17z"/>
<path d="M1042 2165 c-28 -24 -32 -33 -32 -79 0 -43 4 -57 25 -76 23 -21 35
-24 112 -24 81 0 87 1 109 28 33 38 33 104 0 143 -22 25 -31 28 -103 31 -74 4
-81 2 -111 -23z m152 -51 c9 -3 16 -16 16 -29 0 -26 -17 -35 -65 -35 -18 0
-40 3 -49 6 -16 6 -22 45 -9 57 8 9 86 9 107 1z"/>
<path d="M474 1949 c-76 -38 -55 -187 25 -190 26 -1 26 -1 -4 -14 -48 -21 -68
-50 -69 -101 -1 -40 3 -49 34 -77 21 -19 30 -32 22 -35 -61 -20 -77 -125 -26
-173 44 -42 176 -38 220 6 45 45 28 143 -28 169 -10 5 -10 7 1 12 35 16 51 45
51 92 0 56 -19 87 -63 106 -31 14 -31 14 -6 15 42 2 69 39 69 97 0 41 -5 55
-26 75 -22 20 -37 24 -102 26 -42 2 -87 -2 -98 -8z m157 -80 c17 -32 0 -40
-72 -37 -53 2 -64 6 -67 22 -5 26 15 36 75 36 43 0 54 -4 64 -21z m-3 -221 c3
-24 -1 -28 -32 -33 -70 -14 -125 15 -96 51 10 11 28 14 69 12 52 -3 56 -5 59
-30z m2 -197 c15 -29 -12 -51 -61 -51 -45 0 -79 14 -79 33 0 25 25 37 77 37
41 0 54 -4 63 -19z"/>
<path d="M783 1953 c-59 -11 -84 -113 -42 -167 19 -25 25 -26 113 -26 91 0 93
1 114 30 42 57 21 136 -43 160 -26 10 -99 11 -142 3z m125 -72 c8 -5 12 -17
10 -27 -3 -16 -14 -20 -61 -22 -60 -3 -77 8 -63 43 6 17 91 21 114 6z"/>
<path d="M1070 1954 c-8 -4 -25 -16 -37 -27 -33 -30 -33 -114 0 -145 20 -19
35 -22 114 -22 87 0 93 1 112 26 30 38 28 104 -2 140 -21 24 -32 27 -98 30
-41 2 -81 1 -89 -2z m128 -73 c8 -5 12 -17 10 -27 -3 -16 -14 -20 -66 -22 -59
-3 -62 -2 -62 21 0 13 3 27 7 30 9 10 96 8 111 -2z"/>
<path d="M768 1734 c-35 -19 -48 -43 -48 -92 0 -42 30 -92 56 -92 8 0 14 -4
14 -10 0 -5 -6 -10 -13 -10 -28 0 -57 -45 -57 -89 0 -53 12 -77 50 -96 62 -32
185 -12 210 34 19 36 12 100 -13 125 -13 13 -30 26 -38 30 -12 5 -12 7 0 12
37 17 61 54 61 94 0 52 -13 76 -50 95 -37 19 -136 19 -172 -1z m136 -60 c9 -3
16 -16 16 -29 0 -18 -7 -24 -36 -29 -56 -11 -94 1 -94 29 0 13 6 26 13 28 18
8 83 8 101 1z m13 -220 c10 -26 -11 -49 -47 -52 -53 -5 -80 5 -80 32 0 32 7
36 67 36 40 0 55 -4 60 -16z"/>
<path d="M1065 1741 c-42 -18 -56 -46 -53 -102 3 -48 6 -56 35 -74 34 -21 42
-35 20 -35 -8 0 -24 -11 -36 -24 -18 -19 -22 -33 -19 -76 2 -44 8 -56 29 -73
53 -39 172 -34 215 8 42 42 27 149 -23 161 -25 7 -32 24 -9 24 8 0 24 12 35
26 30 38 28 104 -3 141 -22 25 -31 28 -97 30 -41 2 -83 -1 -94 -6z m129 -67
c9 -3 16 -14 16 -25 0 -28 -36 -42 -86 -34 -37 5 -44 10 -44 29 0 12 3 26 7
29 8 9 86 9 107 1z m14 -236 c4 -32 -19 -41 -84 -36 -28 2 -40 8 -42 21 -8 40
5 48 65 45 55 -3 58 -5 61 -30z"/>
<path d="M2147 2893 c-11 -10 -8 -88 3 -118 6 -15 16 -25 22 -23 17 6 37 112
26 132 -9 16 -39 22 -51 9z"/>
<path d="M2153 2723 c-18 -7 -16 -50 2 -57 36 -14 61 24 33 52 -13 13 -16 13
-35 5z"/>
</g>
</svg>
