<?xml version="1.0" standalone="no"?>
<!DOCTYPE svg PUBLIC "-//W3C//DTD SVG 20010904//EN"
 "http://www.w3.org/TR/2001/REC-SVG-20010904/DTD/svg10.dtd">
<svg version="1.0" xmlns="http://www.w3.org/2000/svg"
 width="450.000000pt" height="554.000000pt" viewBox="0 0 450.000000 554.000000"
 preserveAspectRatio="xMidYMid meet">

<g transform="translate(0.000000,554.000000) scale(0.100000,-0.100000)"
fill="#000000" stroke="none">
<path d="M1433 5306 c-27 -24 -28 -27 -33 -153 l-5 -128 -32 -3 c-59 -6 -63
-22 -63 -257 0 -237 2 -244 66 -254 l39 -6 5 -336 5 -336 29 -41 c17 -25 46
-50 73 -63 44 -21 57 -22 365 -22 l320 0 56 -42 c89 -67 205 -238 224 -327 3
-17 -55 -18 -952 -20 l-955 -3 -67 -32 c-89 -42 -151 -101 -191 -182 l-32 -66
0 -1250 0 -1250 33 -67 c40 -82 119 -157 200 -190 l57 -23 1295 0 1295 0 57
23 c67 27 157 105 194 167 14 24 31 72 38 107 l13 63 319 5 c219 3 325 9 340
17 35 20 102 99 130 154 70 140 68 120 72 595 3 366 1 437 -12 468 -16 39
-492 613 -552 665 -20 18 -47 37 -60 43 -22 10 -24 17 -24 92 0 128 -14 186
-98 405 -44 113 -128 333 -187 489 -59 156 -121 303 -138 329 -38 57 -61 71
-222 134 -71 28 -149 62 -173 76 l-42 24 2 197 3 197 39 6 c64 10 66 17 66
254 0 233 -2 242 -60 254 l-35 7 -5 128 c-5 125 -6 128 -33 152 l-28 24 -654
0 -654 0 -28 -24z m1287 -186 l0 -100 -607 2 -608 3 -3 84 c-2 46 -1 90 2 98
4 11 115 13 611 13 l605 0 0 -100z m90 -355 l0 -145 -694 0 -694 0 -6 28 c-7
36 -7 222 0 245 5 16 47 17 700 17 l694 0 0 -145z m-100 -421 l0 -164 -595 0
-595 0 0 158 c0 87 3 162 6 165 4 4 272 6 595 6 l589 -1 0 -164z m0 -362 c0
-86 -11 -121 -44 -144 -6 -4 -254 -8 -551 -8 -409 1 -544 4 -556 13 -30 23
-39 56 -39 141 l0 86 595 0 595 0 0 -88z m191 -37 c35 -14 89 -35 119 -47 74
-29 134 -71 159 -112 12 -18 70 -163 130 -322 60 -159 140 -365 177 -459 l67
-170 5 -120 4 -120 -49 1 -48 1 -5 224 c-5 221 -6 225 -33 277 -57 109 -139
173 -257 203 l-65 17 -30 88 c-52 152 -124 257 -236 339 l-55 41 18 39 c9 22
18 64 18 93 0 28 4 52 8 52 5 0 37 -11 73 -25z m-176 -258 c67 -34 167 -143
208 -227 20 -41 40 -90 43 -107 l7 -33 -185 0 -185 0 -12 43 c-23 77 -101 213
-156 275 -45 49 -52 61 -38 65 10 2 77 5 148 5 111 0 136 -3 170 -21z m-304
-503 c57 -26 118 -85 144 -139 20 -39 20 -70 23 -1255 l2 -1214 -26 -54 c-17
-34 -44 -67 -76 -92 -91 -73 -53 -70 -1004 -70 -956 0 -914 -3 -1000 73 -25
22 -55 58 -67 81 -22 40 -22 49 -25 494 l-3 453 44 -30 c24 -16 71 -39 105
-50 60 -21 79 -21 907 -21 832 0 845 0 865 20 25 25 25 42 3 69 l-18 21 -855
2 -855 3 -55 30 c-60 33 -114 96 -130 153 -6 24 -10 270 -10 687 l0 650 24 50
c36 77 104 133 191 155 17 5 422 7 900 7 867 -2 870 -2 916 -23z m761 -1 c63
-29 132 -101 152 -160 12 -36 16 -89 16 -234 l0 -187 -67 -7 c-125 -12 -212
-71 -294 -197 -70 -110 -107 -282 -96 -459 8 -132 32 -228 82 -336 74 -157
173 -233 308 -233 l67 0 0 -397 c0 -396 0 -398 -24 -448 -12 -27 -43 -69 -69
-92 -72 -67 -108 -73 -409 -73 -142 0 -258 4 -258 8 0 5 9 17 21 28 12 10 35
46 53 79 l31 60 3 1224 c3 1357 6 1278 -63 1381 -19 29 -35 56 -35 62 0 6 99
8 268 6 250 -3 270 -4 314 -25z m128 -775 c-68 -127 -85 -207 -85 -403 0 -133
4 -186 19 -245 18 -73 79 -213 112 -257 l16 -23 -66 0 c-80 0 -107 13 -165 75
-82 89 -129 226 -138 400 -9 190 36 350 126 448 54 58 93 76 163 77 l57 0 -39
-72z m351 44 c25 -15 62 -45 81 -67 89 -102 447 -534 462 -557 15 -24 17 -65
14 -445 l-3 -418 -32 -68 c-18 -38 -37 -67 -42 -65 -13 4 -590 617 -658 698
-89 105 -133 213 -154 374 -18 144 -1 269 56 391 80 173 167 223 276 157z
m131 -1419 l97 -103 -215 0 -214 0 0 223 0 222 118 -120 c65 -66 161 -166 214
-222z m195 -219 c11 -3 35 -23 53 -45 l31 -39 -306 0 -305 0 0 39 c0 29 5 41
18 44 26 7 484 8 509 1z"/>
<path d="M597 3086 c-20 -8 -44 -20 -53 -27 -41 -34 -41 -40 -47 -711 l-5
-648 21 -42 c44 -84 -25 -79 982 -76 l890 3 33 23 c70 50 67 19 70 705 2 405
-1 630 -8 656 -14 52 -45 90 -94 112 -39 18 -85 19 -896 18 -689 0 -862 -2
-893 -13z m1761 -117 l22 -20 0 -607 c-1 -515 -3 -610 -16 -630 l-15 -22 -867
2 -867 3 -3 634 c-1 460 1 638 9 647 10 12 157 14 863 14 846 0 852 0 874 -21z"/>
<path d="M834 1180 c-37 -15 -82 -77 -89 -122 -4 -24 -5 -153 -3 -288 3 -276
6 -289 79 -329 37 -21 45 -22 491 -19 595 4 542 -33 546 378 2 271 1 287 -18
318 -11 18 -34 41 -52 52 -32 19 -51 20 -483 19 -247 0 -459 -4 -471 -9z m904
-112 c18 -18 17 -511 -1 -526 -12 -10 -277 -22 -277 -13 0 2 19 20 41 39 55
47 79 101 79 180 0 72 -20 120 -71 170 -105 102 -294 76 -374 -52 -26 -43 -30
-59 -30 -120 0 -60 4 -79 28 -119 16 -27 44 -58 63 -69 19 -11 34 -22 34 -24
0 -2 -78 -4 -174 -4 -145 0 -177 3 -190 16 -24 23 -24 495 0 518 14 14 67 16
438 16 315 0 425 -3 434 -12z m-301 -242 c27 -29 33 -44 33 -81 0 -37 -6 -52
-33 -81 -103 -113 -286 15 -207 144 26 43 73 63 130 58 35 -3 51 -11 77 -40z"/>
<path d="M1292 788 c-7 -7 -12 -24 -12 -38 0 -33 17 -50 50 -50 33 0 50 17 50
50 0 14 -5 31 -12 38 -15 15 -61 15 -76 0z"/>
</g>
</svg>
