<?xml version="1.0" standalone="no"?>
<!DOCTYPE svg PUBLIC "-//W3C//DTD SVG 20010904//EN"
 "http://www.w3.org/TR/2001/REC-SVG-20010904/DTD/svg10.dtd">
<svg version="1.0" xmlns="http://www.w3.org/2000/svg"
 width="307.000000pt" height="292.000000pt" viewBox="0 0 307.000000 292.000000"
 preserveAspectRatio="xMidYMid meet">

<g transform="translate(0.000000,292.000000) scale(0.100000,-0.100000)"
fill="#000000" stroke="none">
<path d="M681 2391 c-189 -82 -347 -155 -352 -162 -5 -8 -9 -444 -9 -981 0
-919 1 -968 18 -977 13 -7 45 2 127 39 61 26 213 94 339 149 126 56 234 101
240 101 11 0 421 -154 684 -256 l164 -64 426 173 427 173 5 963 c3 529 1 969
-3 977 -4 8 -16 14 -27 14 -10 0 -201 -72 -423 -161 l-406 -161 -218 85 c-120
47 -305 119 -411 161 -106 42 -203 76 -215 75 -12 0 -177 -67 -366 -148z m779
-82 c168 -66 325 -128 350 -138 l45 -17 3 -386 2 -386 -60 14 c-183 42 -221
114 -164 310 74 255 2 406 -213 445 -94 18 -265 -23 -325 -78 -17 -15 -18 -7
-18 186 l0 201 38 -15 c20 -9 174 -70 342 -136z m-450 -82 l0 -223 -31 -30
c-17 -16 -60 -66 -95 -111 -115 -146 -187 -189 -307 -181 -50 3 -71 10 -109
36 -26 18 -54 32 -62 32 -14 0 -16 27 -16 218 l0 218 148 62 c81 34 217 94
302 131 85 38 158 70 163 70 4 1 7 -99 7 -222z m1670 80 l0 -142 -46 -24 c-88
-47 -181 -181 -192 -278 -3 -25 1 -111 8 -191 15 -165 8 -236 -33 -324 -36
-80 -78 -122 -211 -210 -65 -43 -154 -108 -198 -144 l-78 -66 0 196 0 196 28
6 c120 28 279 224 297 366 5 40 0 81 -20 168 -22 94 -27 141 -29 259 l-1 144
225 93 c124 50 231 93 238 93 9 1 12 -34 12 -142z m-548 -204 c4 -86 15 -168
33 -248 16 -73 25 -135 22 -158 -12 -89 -105 -220 -196 -279 -25 -15 -49 -28
-53 -28 -4 0 -8 172 -8 383 l0 384 88 35 c48 20 92 37 98 37 7 1 13 -42 16
-126z m-652 -40 c53 -22 88 -61 107 -120 19 -60 14 -105 -27 -252 -33 -122
-24 -203 31 -266 37 -42 120 -82 203 -99 l61 -13 3 -225 2 -226 -47 -30 c-150
-96 -312 -109 -377 -31 -32 38 -34 82 -6 181 36 132 21 207 -60 288 -47 47
-157 103 -236 121 l-54 12 0 283 0 282 37 32 c90 80 255 108 363 63z m1200
-705 l0 -723 -248 -99 c-136 -55 -304 -123 -374 -152 l-128 -53 1 257 0 257
114 89 c63 50 161 120 217 156 158 102 220 182 254 327 16 69 16 76 -2 350 -7
101 -6 104 25 167 29 59 108 146 132 146 5 0 9 -325 9 -722z m-1670 293 l0
-248 -51 -6 c-64 -8 -168 -55 -228 -105 -25 -20 -108 -96 -184 -169 -77 -73
-143 -133 -148 -133 -12 0 -12 677 0 685 5 3 13 0 17 -6 3 -6 30 -22 58 -35
73 -34 180 -34 255 1 77 36 121 75 201 176 39 49 73 89 75 89 3 0 5 -112 5
-249z m-2 -673 l-3 -352 -155 -69 c-303 -133 -451 -197 -455 -197 -3 0 -5 123
-5 273 l0 274 48 30 c26 17 106 87 177 155 72 67 154 140 182 161 56 41 141
76 186 77 l27 0 -2 -352z m182 323 c112 -43 190 -125 190 -201 0 -18 -9 -68
-21 -113 -39 -152 -10 -235 98 -284 98 -45 248 -22 363 54 l35 23 3 -221 c1
-122 1 -223 0 -225 -3 -2 -687 257 -755 286 l-23 10 0 351 0 352 28 -6 c15 -3
52 -15 82 -26z"/>
</g>
</svg>
